HIERARCHY
ROOT Hips
{
    OFFSET 0.000000 0.000000 0.000000
    CHANNELS 6 Xposition Yposition Zposition Zrotation Xrotation Yrotation
    JOINT Spine
    {
        OFFSET -0.000000 14.517291 0.000000
        CHANNELS 3 Zrotation Xrotation Yrotation
        JOINT Spine1
        {
            OFFSET -0.000000 37.558300 0.000000
            CHANNELS 3 Zrotation Xrotation Yrotation
            JOINT Neck
            {
                OFFSET -0.000000 37.404057 3.400369
                CHANNELS 3 Zrotation Xrotation Yrotation
                JOINT Head
                {
                    OFFSET -0.000000 24.785618 -3.540803
                    CHANNELS 3 Zrotation Xrotation Yrotation
                    End Site
                    {
                        OFFSET -0.000000 35.408028 0.000000
                    }
                }
            }
            JOINT LeftShoulder
            {
                OFFSET 6.992933 33.973492 -0.192664
                CHANNELS 3 Zrotation Xrotation Yrotation
                JOINT LeftArm
                {
                    OFFSET 21.527611 0.000000 0.000000
                    CHANNELS 3 Zrotation Xrotation Yrotation
                    JOINT LeftForeArm
                    {
                        OFFSET 56.353916 0.000000 0.000000
                        CHANNELS 3 Zrotation Xrotation Yrotation
                        JOINT LeftHand
                        {
                            OFFSET 47.774071 0.000000 0.000000
                            CHANNELS 3 Zrotation Xrotation Yrotation
                            End Site
                            {
                                OFFSET 26.556021 0.000000 0.000000
                            }
                        }
                    }
                }
            }
            JOINT RightShoulder
            {
                OFFSET -7.065357 33.973492 -0.192664
                CHANNELS 3 Zrotation Xrotation Yrotation
                JOINT RightArm
                {
                    OFFSET -21.527611 0.000000 0.000000
                    CHANNELS 3 Zrotation Xrotation Yrotation
                    JOINT RightForeArm
                    {
                        OFFSET -56.353916 0.000000 0.000000
                        CHANNELS 3 Zrotation Xrotation Yrotation
                        JOINT RightHand
                        {
                            OFFSET -47.774071 0.000000 0.000000
                            CHANNELS 3 Zrotation Xrotation Yrotation
                            End Site
                            {
                                OFFSET -26.556021 0.000000 0.000000
                            }
                        }
                    }
                }
            }
        }
    }
    JOINT LeftUpLeg
    {
        OFFSET 17.704014 0.000000 0.000000
        CHANNELS 3 Zrotation Xrotation Yrotation
        JOINT LeftLeg
        {
            OFFSET -0.000000 -81.181816 0.000000
            CHANNELS 3 Zrotation Xrotation Yrotation
            JOINT LeftFoot
            {
                OFFSET -0.000000 -62.821102 0.000000
                CHANNELS 3 Zrotation Xrotation Yrotation
                JOINT LeftToeBase
                {
                    OFFSET -0.000000 -11.507608 26.556021
                    CHANNELS 3 Zrotation Xrotation Yrotation
                    End Site
                    {
                        OFFSET -0.000000 0.000000 7.081605
                    }
                }
            }
        }
    }
    JOINT RightUpLeg
    {
        OFFSET -17.704014 0.000000 0.000000
        CHANNELS 3 Zrotation Xrotation Yrotation
        JOINT RightLeg
        {
            OFFSET -0.000000 -81.181816 0.000000
            CHANNELS 3 Zrotation Xrotation Yrotation
            JOINT RightFoot
            {
                OFFSET -0.000000 -62.821102 0.000000
                CHANNELS 3 Zrotation Xrotation Yrotation
                JOINT RightToeBase
                {
                    OFFSET -0.000000 -11.507608 26.556021
                    CHANNELS 3 Zrotation Xrotation Yrotation
                    End Site
                    {
                        OFFSET -0.000000 0.000000 7.081605
                    }
                }
            }
        }
    }
}
MOTION
Frames:    10
Frame Time:    0.008333
28.146332    154.572052    -37.827427    0.338515    -1.667988    -45.928947    1.612019    0.050471    1.254732    1.544575    -0.687549    0.426979    16.161591    2.692251    15.339599    -11.935052    9.103912    13.221791    9.147343    1.221740    -18.466772    -12.110595    -15.548797    -46.258335    12.938772    -41.251030    -16.887999    -27.811598    -31.252069    -40.524864    -6.083007    4.081069    -0.275366    33.689018    9.417905    80.651268    4.293275    -4.747177    102.539543    10.787233    -7.766504    24.212460    18.443781    -20.342756    6.279484    -12.942664    21.461742    -3.416541    -7.583095    -0.261243    37.714718    0.000000    0.000000    0.000000    -17.359499    -2.087392    -6.067340    8.991721    34.275921    -2.218459    4.148850    -23.763790    -16.324116    0.000000    0.000000    0.000000    
28.109825    154.580338    -37.818657    0.339890    -1.671628    -45.931805    1.611129    0.041854    1.260863    1.553414    -0.683272    0.428937    16.173882    2.697190    15.348161    -11.946906    9.099633    13.228740    9.140228    1.228090    -18.444944    -12.118400    -15.493968    -46.190685    13.325211    -41.518066    -16.210205    -27.572813    -31.703876    -40.322433    -6.082436    4.078290    -0.275478    33.712521    9.411909    80.657722    4.292819    -4.736771    102.529053    10.774097    -7.756763    24.218346    18.443842    -20.321526    6.282915    -12.938232    21.447727    -3.413194    -7.586956    -0.261387    37.707367    0.000000    0.000000    0.000000    -17.348158    -2.058111    -6.053914    8.978406    34.231552    -2.394213    4.218272    -23.746597    -16.133909    0.000000    0.000000    0.000000    
28.073490    154.586746    -37.809326    0.339457    -1.670494    -45.939037    1.628039    0.027596    1.266288    1.539504    -0.677414    0.430542    16.186554    2.692623    15.353974    -11.943475    9.117336    13.234636    9.130424    1.233768    -18.432007    -12.107038    -15.414059    -46.091751    13.683340    -41.869488    -15.598647    -27.405731    -32.219086    -40.150227    -6.062194    4.090270    -0.275576    33.698517    9.412288    80.677719    4.288675    -4.772184    102.518791    10.794507    -7.781075    24.220835    18.451313    -20.302114    6.290295    -12.933986    21.438169    -3.427937    -7.584463    -0.264018    37.715797    0.000000    0.000000    0.000000    -17.333885    -2.042434    -6.033869    8.973997    34.222363    -2.202397    4.139965    -23.766249    -16.351805    0.000000    0.000000    0.000000    
28.034739    154.592163    -37.798340    0.334554    -1.675626    -45.938660    1.636551    0.024401    1.269804    1.538463    -0.676134    0.431613    16.189081    2.687068    15.364982    -11.932710    9.129179    13.246938    9.110752    1.242434    -18.416504    -12.119151    -15.365917    -46.002605    13.985188    -42.007801    -15.057442    -27.089096    -32.549957    -39.943745    -6.051800    4.101624    -0.267292    33.711445    9.398848    80.681671    4.301762    -4.765961    102.518791    10.778174    -7.794150    24.227249    18.453455    -20.281803    6.287532    -12.925069    21.437843    -3.445073    -7.604830    -0.281231    37.730091    0.000000    0.000000    0.000000    -17.322643    -2.007567    -6.028309    8.968671    34.192329    -2.198094    4.124413    -23.774122    -16.356436    0.000000    0.000000    0.000000    
27.993685    154.598816    -37.783169    0.326551    -1.685910    -45.936954    1.636045    0.026369    1.272891    1.554744    -0.678190    0.432765    16.177122    2.680593    15.372689    -11.911692    9.136889    13.257662    9.073671    1.252928    -18.392307    -12.148355    -15.336949    -45.924370    14.240048    -42.172668    -14.571535    -26.935829    -32.840275    -39.812302    -6.057080    4.113205    -0.269752    33.731110    9.393721    80.690529    4.309806    -4.758034    102.505722    10.762425    -7.797347    24.240324    18.453537    -20.254332    6.295212    -12.915270    21.441746    -3.459294    -7.612219    -0.291801    37.729801    0.000000    0.000000    0.000000    -17.308001    -1.958371    -6.032057    8.941961    34.140999    -2.365484    4.214353    -23.759920    -16.153313    0.000000    0.000000    0.000000    
27.952709    154.601913    -37.768593    0.318334    -1.692774    -45.932732    1.646049    0.017018    1.274489    1.553891    -0.665455    0.433082    16.182339    2.684846    15.371678    -11.917763    9.123423    13.254780    9.047194    1.270594    -18.367638    -12.224150    -15.408692    -45.869965    14.379388    -42.254406    -14.173330    -26.715012    -33.065498    -39.664589    -6.053863    4.115552    -0.268365    33.733604    9.407207    80.690895    4.299557    -4.792635    102.509521    10.768746    -7.819129    24.228397    18.455206    -20.229050    6.291297    -12.907223    21.441387    -3.460013    -7.629704    -0.314787    37.717785    0.000000    0.000000    0.000000    -17.297735    -1.924273    -6.036841    8.939395    34.135986    -2.160501    4.112733    -23.784964    -16.388788    0.000000    0.000000    0.000000    
27.915722    154.604950    -37.754612    0.312980    -1.695393    -45.928371    1.656072    0.004339    1.276298    1.553192    -0.651892    0.433387    16.185720    2.688038    15.373468    -11.912903    9.102804    13.254807    9.018304    1.286013    -18.347712    -12.279879    -15.448995    -45.795158    14.513909    -42.371723    -13.829149    -26.576481    -33.293900    -39.539650    -6.047562    4.131796    -0.269838    33.729160    9.398273    80.698112    4.293678    -4.818591    102.505005    10.765300    -7.838426    24.221870    18.462212    -20.210081    6.284466    -12.916922    21.437881    -3.461689    -7.614945    -0.317774    37.728603    0.000000    0.000000    0.000000    -17.284107    -1.891770    -6.039887    8.925803    34.111542    -2.150062    4.110208    -23.794498    -16.383034    0.000000    0.000000    0.000000    
27.875019    154.610031    -37.742191    0.307268    -1.700593    -45.919483    1.665080    -0.004353    1.278524    1.544172    -0.643912    0.433964    16.190702    2.704424    15.364671    -11.911906    9.060135    13.242893    8.998781    1.309534    -18.315599    -12.349468    -15.503838    -45.743107    14.638556    -42.369331    -13.507724    -26.493347    -33.347649    -39.504944    -6.040656    4.132423    -0.267321    33.742424    9.410567    80.678543    4.287169    -4.841345    102.506317    10.765497    -7.850647    24.245890    18.464832    -20.190077    6.279497    -12.913514    21.434175    -3.489318    -7.619678    -0.323797    37.741714    0.000000    0.000000    0.000000    -17.270473    -1.858102    -6.051815    8.907342    34.094330    -2.161125    4.131196    -23.796759    -16.349058    0.000000    0.000000    0.000000    
27.834368    154.614105    -37.729465    0.302676    -1.705246    -45.913731    1.673790    -0.016596    1.282783    1.540532    -0.630226    0.435073    16.190432    2.717111    15.350454    -11.909727    9.016813    13.225435    8.973612    1.326202    -18.287117    -12.399482    -15.520220    -45.668770    14.765773    -42.268036    -13.250762    -26.288166    -33.338024    -39.396732    -6.043645    4.127762    -0.272511    33.745789    9.435170    80.662460    4.270913    -4.884472    102.509750    10.786672    -7.868550    24.250410    18.466755    -20.170359    6.282343    -12.906847    21.433767    -3.497073    -7.626997    -0.336031    37.741314    0.000000    0.000000    0.000000    -17.255676    -1.821012    -6.065910    8.886379    34.057819    -2.317167    4.196027    -23.777107    -16.163395    0.000000    0.000000    0.000000    
27.793232    154.615753    -37.715202    0.301493    -1.711077    -45.911861    1.687837    -0.038716    1.295617    1.520794    -0.599794    0.438813    16.192173    2.721656    15.342542    -11.904625    8.963041    13.212213    8.943189    1.337446    -18.260708    -12.407484    -15.521429    -45.578873    14.844734    -42.252617    -13.057515    -26.140497    -33.409931    -39.265259    -6.042261    4.131984    -0.284311    33.759007    9.441884    80.657707    4.264755    -4.912232    102.503731    10.804195    -7.883199    24.260525    18.465689    -20.151419    6.286682    -12.899800    21.437273    -3.511062    -7.618313    -0.351217    37.733551    0.000000    0.000000    0.000000    -17.247520    -1.796023    -6.058975    8.878768    34.046906    -2.309942    4.203037    -23.798063    -16.168318    0.000000    0.000000    0.000000    
